HIERARCHY
ROOT Hips
{
  OFFSET 0 0 0
  CHANNELS 6 Xposition Yposition Zposition Zrotation Yrotation Xrotation
  JOINT LeftThigh
  {
    OFFSET 8.409438 0 -5.917753
    CHANNELS 3 Zrotation Yrotation Xrotation
    JOINT LeftLeg
    {
      OFFSET 0 0 -42.358652
      CHANNELS 3 Zrotation Yrotation Xrotation
      JOINT LeftFoot
      {
        OFFSET 0 0 -39.357303
        CHANNELS 3 Zrotation Yrotation Xrotation
      }
    }
  }
  JOINT RightThigh
  {
    OFFSET -8.409438 0 -5.917753
    CHANNELS 3 Zrotation Yrotation Xrotation
    JOINT RightLeg
    {
      OFFSET 0 0 -42.358652
      CHANNELS 3 Zrotation Yrotation Xrotation
      JOINT RightFoot
      {
        OFFSET 0 0 -39.357303
        CHANNELS 3 Zrotation Yrotation Xrotation
      }
    }
  }
  JOINT SpineLow
  {
    OFFSET 0 0 4.719101
    CHANNELS 3 Zrotation Yrotation Xrotation
    JOINT SpineMid
    {
      OFFSET 0 0 12.899191
      CHANNELS 3 Zrotation Yrotation Xrotation
      JOINT Chest
      {
        OFFSET 0 0 12.899191
        CHANNELS 3 Zrotation Yrotation Xrotation
        JOINT LeftShoulder
        {
          OFFSET 7.550562 1.41573 9.438202
          CHANNELS 3 Zrotation Yrotation Xrotation
          JOINT LeftArm
          {
            OFFSET 9.155056 0 4.247191
            CHANNELS 3 Zrotation Yrotation Xrotation
            JOINT LeftForearm
            {
              OFFSET 0 0 25.771955
              CHANNELS 3 Zrotation Yrotation Xrotation
              JOINT LeftHand
              {
                OFFSET 0 0 25.197169
                CHANNELS 3 Zrotation Yrotation Xrotation
              }
            }
          }
        }
        JOINT RightShoulder
        {
          OFFSET -7.550562 1.41573 9.438202
          CHANNELS 3 Zrotation Yrotation Xrotation
          JOINT RightArm
          {
            OFFSET -9.155056 0 4.247191
            CHANNELS 3 Zrotation Yrotation Xrotation
            JOINT RightForearm
            {
              OFFSET 0 0 -25.771955
              CHANNELS 3 Zrotation Yrotation Xrotation
              JOINT RightHand
              {
                OFFSET 0 0 -25.197169
                CHANNELS 3 Zrotation Yrotation Xrotation
              }
            }
          }
        }
        JOINT Neck
        {
          OFFSET 0 0 15.101124
          CHANNELS 3 Zrotation Yrotation Xrotation
          JOINT Head
          {
            OFFSET 0 0 11.325843
            CHANNELS 3 Zrotation Yrotation Xrotation
            End Site
            {
              OFFSET 0 0 14.157303
            }
          }
        }
      }
    }
  }
}
MOTION
Frames: 17
Frame Time: 0.0
0.0  89.887642  0.0  0.641121  -0.245867  -91.32169  11.159312  -12.245527  -2.535352  1.902817  1.797058  14.268038  0.113302  0.026342  -0.757546  -11.525354  9.894546  -10.358917  -13.454359  8.887729  22.110312  5.865363  3.877235  0.492573  -1.695355  -0.185707  -0.420309  -4.630789  -0.536761  -1.135231  -4.630789  -0.536761  -1.135231  -13.112041  13.911477  7.017339  139.905426  38.183181  -159.538507  2.200618  -5.737206  47.465752  79.543036  12.796882  0.310756  -3.967703  -8.095684  15.578296  82.855676  25.33557  35.4014  -0.864551  17.60462  -41.012164  103.355455  -15.855647  -3.283879  -15.866062  -7.172281  -27.202522  -12.23363  -4.687661  -20.578326  
0.0  89.887642  0.0  0.450904  -1.406962  -91.171958  12.307953  -12.522964  -2.984235  1.999222  1.985958  14.932852  0.056884  0.023697  -0.890497  -9.748319  9.357607  -11.881761  -12.549848  8.723459  24.023474  5.378864  4.311042  0.830603  -1.622031  -0.13652  -0.339651  -4.431691  -0.395734  -0.91878  -4.431692  -0.395734  -0.918779  -13.597808  13.873171  6.888349  139.508725  38.516838  -159.552773  1.596582  -5.693949  47.349733  79.670152  13.154258  -0.379382  -2.272751  -8.823352  15.86167  82.188752  26.758874  33.926745  0.267412  18.942909  -40.134208  103.835362  -16.286797  -2.479289  -15.654834  -7.783924  -27.433338  -12.103446  -5.151627  -20.75944  
0.0  89.887642  0.0  0.145051  -3.448191  -91.091313  13.755563  -13.056683  -3.257297  2.620193  2.203643  15.735324  -0.074772  0.020565  -1.106597  -8.064341  8.755709  -13.40644  -11.750545  8.715891  25.803723  5.264022  4.487229  0.984338  -1.475853  -0.098029  -0.232305  -4.033135  -0.282008  -0.628734  -4.033135  -0.282008  -0.628733  -13.853574  13.69831  6.815466  139.332529  38.801117  -159.370875  0.398604  -5.554694  47.476741  79.711127  13.661767  -1.615582  -1.102365  -9.678557  15.695306  83.540805  27.559151  33.368983  0.775967  20.237821  -39.265185  104.393594  -16.781541  -1.591155  -15.178776  -8.493294  -27.679133  -11.779186  -5.70088  -20.948274  
0.0  89.887642  0.0  -0.232545  -6.137363  -90.883177  15.175255  -13.750145  -3.609464  3.807586  2.446194  16.76254  -0.458931  0.021  -1.48293  -6.669872  8.044175  -15.030252  -10.907274  8.807801  27.321322  5.495402  4.539858  1.138212  -1.298305  0.020392  -0.169107  -3.54891  0.046644  -0.463178  -3.54891  0.046644  -0.463178  -13.770783  13.043449  7.036916  139.212013  39.020458  -159.243129  -1.678509  -5.183899  47.850451  91.044127  1.449207  8.589633  0.393779  -11.201502  15.860649  85.154703  28.626791  32.838388  1.51672  21.640221  -38.151884  104.971027  -17.324146  -0.710948  -14.561642  -9.507437  -27.695134  -11.358282  -6.491569  -20.965246  
0.0  89.887642  0.0  -0.634494  -9.204933  -90.584186  16.39801  -14.55815  -4.08699  5.415706  2.748322  18.087056  -0.531271  -0.005382  -1.679283  -5.776833  7.349513  -16.549436  -9.629424  8.599679  28.49642  5.778076  4.551015  1.214964  -1.002664  0.09072  -0.09585  -2.741049  0.243952  -0.265706  -2.741049  0.243952  -0.265706  -14.376996  12.64771  6.804819  139.110539  39.067792  -159.262452  -5.0915  -4.159355  48.447893  89.664508  2.363757  6.535289  1.409689  -12.496673  15.994884  87.236909  30.007129  32.513495  2.394154  23.008014  -36.887822  105.369021  -17.822999  -0.003702  -14.070726  -10.350139  -27.874855  -11.028261  -7.143948  -21.101988  
0.0  89.887642  0.0  -1.097007  -12.694682  -90.455395  17.583762  -15.597629  -4.480153  7.262807  3.087404  19.755584  -0.716104  -0.047347  -1.901847  -5.132229  6.602186  -17.705584  -7.96785  8.14003  29.430051  6.359356  4.57244  1.229576  -0.657742  0.188873  -0.01041  -1.797987  0.515939  -0.03359  -1.797987  0.515939  -0.03359  -15.023672  11.998798  6.742032  139.142716  38.983847  -159.108645  -10.842413  -3.060387  48.817032  88.279096  3.193899  5.287447  2.407212  -14.080431  16.065126  89.738706  31.361191  32.370836  3.442366  24.21794  -35.396706  105.721265  -18.221838  0.654122  -13.570989  -11.258404  -27.931454  -10.692441  -7.84894  -21.144973  
0.0  89.887642  0.0  -1.649564  -16.536369  -90.354108  18.89746  -16.781454  -4.917251  8.990444  3.429507  21.7118  -0.913433  -0.107575  -2.071075  -4.356485  5.754427  -18.69121  -6.251632  7.463437  30.204216  6.999055  4.546546  1.223143  -0.306162  0.289856  0.072316  -0.836032  0.793192  0.194004  -0.836032  0.793192  0.194004  -15.457054  11.109861  6.822061  139.393051  38.665911  -158.550903  -18.233227  -0.943881  49.31823  87.312131  4.190427  4.072809  3.626559  -15.783595  15.961969  92.605936  32.572582  32.364016  4.572102  25.272625  -33.644506  106.229322  -18.354651  1.197538  -12.911393  -12.176527  -27.881925  -10.235316  -8.57071  -21.102854  
0.0  89.887642  0.0  -2.248697  -20.767797  -90.262362  20.623221  -17.926595  -5.318085  10.091622  3.775096  23.679073  -2.331343  -0.354023  -3.082393  -3.052969  4.973354  -19.686556  -4.608019  6.501586  30.983677  7.372828  4.36133  1.218513  0.066464  0.424056  0.140088  0.184145  1.158724  0.384117  0.184145  1.158724  0.384117  -15.810774  9.977307  6.989567  139.784089  37.969144  -157.120107  -26.642787  1.18473  49.266824  85.012553  5.453232  2.15533  4.823708  -17.413244  15.959131  95.950747  33.894595  32.221588  5.923213  26.049597  -31.665296  106.854756  -18.338307  1.806949  -12.149074  -13.16271  -27.676174  -9.700688  -9.350966  -20.939304  
0.0  89.887642  0.0  -2.803678  -25.311641  -90.253417  22.851767  -18.903679  -5.442897  10.240163  4.203859  25.310566  -1.93863  -0.435121  -3.061185  -1.335802  4.373566  -20.73932  -3.066882  5.170863  31.898683  8.085059  4.280046  1.307582  0.471166  0.537316  0.184335  1.292167  1.465035  0.514386  1.292167  1.465035  0.514386  -16.207671  9.142095  7.263852  140.341711  37.135013  -156.169713  -35.382305  3.835901  50.191236  83.123654  7.526206  -0.203304  5.914541  -19.012801  16.146816  99.842839  35.321205  32.508877  7.432816  26.671684  -29.460739  107.58486  -18.024118  2.335015  -11.320374  -13.962709  -27.360954  -9.105962  -9.995219  -20.688358  
0.0  89.887642  0.0  -2.657539  -32.33482  -91.338754  26.932551  -19.687805  -4.204183  10.194779  4.772396  26.703921  -1.239135  -0.552993  -2.991496  3.137106  4.408941  -20.960659  -1.867364  3.663784  32.840783  8.937372  4.24943  1.398627  1.328415  0.803054  0.305233  3.642375  2.177497  0.878442  3.642376  2.177497  0.878442  -17.142578  8.011945  7.832021  141.891691  35.837056  -154.2473  -44.010158  6.084242  50.838178  80.237277  9.216376  -3.571382  6.387066  -21.466053  16.372814  104.356683  36.646107  33.519034  9.195558  27.207469  -27.134989  108.111311  -17.528794  2.845818  -10.771738  -14.904518  -26.873788  -8.721659  -10.735718  -20.314328  
0.0  89.887642  0.0  -2.864291  -37.032897  -91.418969  27.972042  -20.54026  -3.607469  10.938329  5.445025  28.315015  -0.541601  -0.742224  -2.958536  4.83841  4.086351  -22.06647  -0.727876  2.246838  33.877696  9.617543  4.134414  1.401672  1.668856  0.963235  0.263221  4.574277  2.61326  0.785945  4.574277  2.61326  0.785945  -17.205708  7.314724  8.439372  143.002671  34.819813  -152.841902  -53.542577  9.40316  51.732441  77.392341  10.57224  -8.389618  7.566702  -23.470166  16.681592  109.112948  37.771141  34.590437  11.124109  27.654772  -24.774735  108.264707  -16.75996  3.384619  -9.641778  -15.688711  -26.28526  -7.893135  -11.382583  -19.846524  
0.0  89.887642  0.0  -2.967205  -41.611072  -91.528548  27.790421  -21.19556  -2.854336  12.598517  5.960613  30.173059  0.081366  -0.9485  -2.955856  6.213131  3.756345  -23.122328  0.035481  1.201813  34.95424  10.199645  4.0729  1.39565  1.892573  1.120039  0.235193  5.187379  3.040911  0.730562  5.18738  3.040911  0.730562  -16.970092  6.694002  8.799412  145.20326  33.833157  -150.552453  -62.931235  13.874313  51.826116  76.153675  11.247316  -13.910875  9.377523  -25.664216  16.538491  113.928568  38.426624  36.006037  13.04938  28.029748  -22.516262  108.064641  -15.965629  4.065922  -7.958474  -16.523651  -25.71806  -6.653993  -12.087806  -19.37576  
0.0  89.887642  0.0  -3.023097  -46.052026  -91.786508  26.919856  -21.612221  -1.94739  14.683284  6.19954  32.042328  0.733287  -1.056041  -2.825569  7.193673  3.462383  -24.151554  0.591188  0.274558  36.179508  10.808064  3.997686  1.448967  1.978326  1.247929  0.237251  5.424134  3.389005  0.750717  5.424135  3.389005  0.750717  -16.161335  6.317942  8.821307  147.044551  33.31722  -148.971431  -72.236835  19.043108  51.330465  76.009841  10.516839  -19.36837  11.864862  -27.670683  16.284897  118.666982  38.835932  37.513996  14.802905  28.382971  -20.455846  107.657256  -15.376158  4.846891  -5.885369  -17.351723  -25.271693  -5.128037  -12.799402  -18.978758  
0.0  89.887642  0.0  -2.996707  -50.362954  -92.353371  25.809289  -22.014943  -0.954773  17.067322  6.264678  34.174406  1.318955  -1.183072  -2.707068  7.967778  3.033463  -25.002764  1.209223  -0.509964  37.429714  10.190092  3.05213  1.287849  2.093825  1.350466  0.245075  5.742328  3.666902  0.787013  5.742328  3.666902  0.787013  -15.726297  6.226392  8.766426  148.811141  33.441068  -148.109827  -80.01813  24.66659  49.776306  77.868554  8.642773  -24.533483  13.981748  -29.517471  16.167273  122.917903  38.971058  38.773934  16.252409  28.716467  -18.638979  107.142545  -14.986874  5.592145  -3.922327  -18.067169  -24.732082  -3.677855  -13.419279  -18.511404  
0.0  89.887642  0.0  -2.920064  -54.491597  -93.261225  24.759947  -22.315783  0.288879  19.57802  5.926383  36.294973  1.716576  -1.407049  -2.69071  8.70859  2.397838  -25.536569  1.847642  -1.225855  38.649561  10.951071  3.058416  1.483121  2.302814  1.401856  0.277853  6.316968  3.801301  0.893122  6.316968  3.801301  0.893122  -15.984277  6.36768  8.836261  150.471123  34.500761  -147.76411  -84.514186  29.694821  48.579024  80.976395  7.953548  -28.244043  15.057297  -31.168699  16.29989  126.57344  38.785225  39.673791  17.230295  29.025683  -17.148313  106.624315  -14.684393  6.147978  -2.461639  -18.563599  -24.203987  -2.593887  -13.851536  -18.067174  
0.0  89.887642  0.0  -2.502764  -58.225005  -94.698388  24.565381  -22.341563  1.590137  21.219563  5.03558  38.190601  1.911432  -1.473823  -2.629107  9.436947  1.784378  -25.572589  2.318171  -1.699679  39.812635  11.64075  3.220361  1.606745  2.424828  1.486898  0.566992  6.670036  4.002438  1.699073  6.670036  4.002438  1.699073  -16.059197  5.913175  7.514259  151.515331  35.603334  -147.437485  -85.523441  32.480216  49.433464  83.872951  8.852859  -29.154582  17.071936  -32.330635  14.805214  129.198821  38.420187  39.976795  17.698599  29.315405  -16.040678  105.955195  -14.434333  6.562699  -0.557455  -19.078497  -24.570866  -1.210223  -14.313241  -18.270924  
0.0  89.887642  0.0  -1.755263  -61.431559  -96.510374  25.177189  -22.155556  2.797049  21.588022  4.023611  39.590226  2.055547  -1.531314  -2.523303  9.673  1.309205  -25.200695  3.326437  -2.112283  40.644664  12.001363  3.085744  1.700794  2.610228  1.981785  1.51986  7.270426  5.242995  4.371415  7.270426  5.242995  4.371415  -17.323038  2.226871  2.674966  151.638031  36.910616  -147.120821  -85.087193  33.746875  51.750396  85.745935  9.102198  -28.142185  21.010979  -33.808799  7.591197  130.415285  37.833396  39.381907  17.758284  29.827819  -15.410982  104.9853  -14.321334  6.768291  1.810225  -20.602293  -27.740561  0.369968  -15.569325  -20.51054  
